<mxfile host="app.diagrams.net" agent="Mozilla/5.0 (Windows NT 10.0; Win64; x64) AppleWebKit/537.36 (KHTML, like Gecko) Chrome/129.0.0.0 Safari/537.36" version="24.7.17">
  <diagram name="Page-1" id="cYGViQdiXj36vGwfbyw5">
    <mxGraphModel dx="1644" dy="446" grid="1" gridSize="10" guides="1" tooltips="1" connect="1" arrows="1" fold="1" page="1" pageScale="1" pageWidth="850" pageHeight="1100" math="0" shadow="0">
      <root>
        <mxCell id="0" />
        <mxCell id="1" parent="0" />
        <mxCell id="zCudlDXxl8ypukXVPmgw-34" style="edgeStyle=orthogonalEdgeStyle;rounded=0;orthogonalLoop=1;jettySize=auto;html=1;" edge="1" parent="1" source="zCudlDXxl8ypukXVPmgw-1" target="zCudlDXxl8ypukXVPmgw-5">
          <mxGeometry relative="1" as="geometry" />
        </mxCell>
        <mxCell id="zCudlDXxl8ypukXVPmgw-1" value="SOAR EDR Playbook" style="whiteSpace=wrap;html=1;aspect=fixed;fillColor=#1ba1e2;fontColor=#ffffff;strokeColor=#006EAF;" vertex="1" parent="1">
          <mxGeometry x="430" y="50" width="80" height="80" as="geometry" />
        </mxCell>
        <mxCell id="zCudlDXxl8ypukXVPmgw-2" value="Slack" style="rounded=1;whiteSpace=wrap;html=1;fillColor=#fff2cc;strokeColor=#d6b656;" vertex="1" parent="1">
          <mxGeometry x="190" y="330" width="120" height="60" as="geometry" />
        </mxCell>
        <mxCell id="zCudlDXxl8ypukXVPmgw-3" value="Email" style="rounded=1;whiteSpace=wrap;html=1;fillColor=#d5e8d4;strokeColor=#82b366;" vertex="1" parent="1">
          <mxGeometry x="620" y="330" width="120" height="60" as="geometry" />
        </mxCell>
        <mxCell id="zCudlDXxl8ypukXVPmgw-6" style="edgeStyle=orthogonalEdgeStyle;rounded=0;orthogonalLoop=1;jettySize=auto;html=1;entryX=0;entryY=0.5;entryDx=0;entryDy=0;" edge="1" parent="1" source="zCudlDXxl8ypukXVPmgw-4" target="zCudlDXxl8ypukXVPmgw-5">
          <mxGeometry relative="1" as="geometry" />
        </mxCell>
        <mxCell id="zCudlDXxl8ypukXVPmgw-7" value="Detection Alert" style="edgeLabel;html=1;align=center;verticalAlign=middle;resizable=0;points=[];" vertex="1" connectable="0" parent="zCudlDXxl8ypukXVPmgw-6">
          <mxGeometry x="-0.3722" y="4" relative="1" as="geometry">
            <mxPoint as="offset" />
          </mxGeometry>
        </mxCell>
        <mxCell id="zCudlDXxl8ypukXVPmgw-4" value="LimaCharlie" style="rounded=1;whiteSpace=wrap;html=1;fillColor=#dae8fc;strokeColor=#6c8ebf;" vertex="1" parent="1">
          <mxGeometry x="130" y="200" width="120" height="60" as="geometry" />
        </mxCell>
        <mxCell id="zCudlDXxl8ypukXVPmgw-8" style="rounded=0;orthogonalLoop=1;jettySize=auto;html=1;entryX=1;entryY=0.25;entryDx=0;entryDy=0;" edge="1" parent="1" source="zCudlDXxl8ypukXVPmgw-5" target="zCudlDXxl8ypukXVPmgw-2">
          <mxGeometry relative="1" as="geometry" />
        </mxCell>
        <mxCell id="zCudlDXxl8ypukXVPmgw-9" value="Send Message with details" style="edgeLabel;html=1;align=center;verticalAlign=middle;resizable=0;points=[];" vertex="1" connectable="0" parent="zCudlDXxl8ypukXVPmgw-8">
          <mxGeometry x="0.1612" y="-3" relative="1" as="geometry">
            <mxPoint y="-1" as="offset" />
          </mxGeometry>
        </mxCell>
        <mxCell id="zCudlDXxl8ypukXVPmgw-10" style="rounded=0;orthogonalLoop=1;jettySize=auto;html=1;entryX=0;entryY=0.25;entryDx=0;entryDy=0;" edge="1" parent="1" source="zCudlDXxl8ypukXVPmgw-5" target="zCudlDXxl8ypukXVPmgw-3">
          <mxGeometry relative="1" as="geometry" />
        </mxCell>
        <mxCell id="zCudlDXxl8ypukXVPmgw-11" value="Send message with details" style="edgeLabel;html=1;align=center;verticalAlign=middle;resizable=0;points=[];" vertex="1" connectable="0" parent="zCudlDXxl8ypukXVPmgw-10">
          <mxGeometry x="-0.1084" y="-5" relative="1" as="geometry">
            <mxPoint as="offset" />
          </mxGeometry>
        </mxCell>
        <mxCell id="zCudlDXxl8ypukXVPmgw-14" style="edgeStyle=orthogonalEdgeStyle;rounded=0;orthogonalLoop=1;jettySize=auto;html=1;entryX=0.5;entryY=0;entryDx=0;entryDy=0;" edge="1" parent="1" source="zCudlDXxl8ypukXVPmgw-5" target="zCudlDXxl8ypukXVPmgw-13">
          <mxGeometry relative="1" as="geometry" />
        </mxCell>
        <mxCell id="zCudlDXxl8ypukXVPmgw-15" value="Does the user wants to isloate machine" style="edgeLabel;html=1;align=center;verticalAlign=middle;resizable=0;points=[];" vertex="1" connectable="0" parent="zCudlDXxl8ypukXVPmgw-14">
          <mxGeometry x="0.0256" y="1" relative="1" as="geometry">
            <mxPoint as="offset" />
          </mxGeometry>
        </mxCell>
        <mxCell id="zCudlDXxl8ypukXVPmgw-5" value="Tines" style="rounded=1;whiteSpace=wrap;html=1;fillColor=#e1d5e7;strokeColor=#9673a6;" vertex="1" parent="1">
          <mxGeometry x="410" y="200" width="120" height="60" as="geometry" />
        </mxCell>
        <mxCell id="zCudlDXxl8ypukXVPmgw-12" value="Message with details contains&lt;div&gt;- Time&lt;/div&gt;&lt;div&gt;- Computer Name&lt;/div&gt;&lt;div&gt;- Source IP&amp;nbsp;&lt;/div&gt;&lt;div&gt;- Process&lt;/div&gt;&lt;div&gt;- Command Line&lt;/div&gt;&lt;div&gt;- File Path&amp;nbsp;&lt;/div&gt;&lt;div&gt;- Sensor ID&lt;/div&gt;&lt;div&gt;- Link to the detection (if applicable)&lt;/div&gt;" style="text;html=1;align=left;verticalAlign=middle;whiteSpace=wrap;rounded=0;" vertex="1" parent="1">
          <mxGeometry x="600" y="40" width="205" height="195" as="geometry" />
        </mxCell>
        <mxCell id="zCudlDXxl8ypukXVPmgw-18" style="edgeStyle=orthogonalEdgeStyle;rounded=0;orthogonalLoop=1;jettySize=auto;html=1;entryX=0.5;entryY=0;entryDx=0;entryDy=0;" edge="1" parent="1" source="zCudlDXxl8ypukXVPmgw-13" target="zCudlDXxl8ypukXVPmgw-16">
          <mxGeometry relative="1" as="geometry" />
        </mxCell>
        <mxCell id="zCudlDXxl8ypukXVPmgw-19" style="edgeStyle=orthogonalEdgeStyle;rounded=0;orthogonalLoop=1;jettySize=auto;html=1;" edge="1" parent="1" source="zCudlDXxl8ypukXVPmgw-13">
          <mxGeometry relative="1" as="geometry">
            <mxPoint x="620" y="520" as="targetPoint" />
          </mxGeometry>
        </mxCell>
        <mxCell id="zCudlDXxl8ypukXVPmgw-13" value="User Prompt" style="rounded=0;whiteSpace=wrap;html=1;" vertex="1" parent="1">
          <mxGeometry x="410" y="390" width="120" height="60" as="geometry" />
        </mxCell>
        <mxCell id="zCudlDXxl8ypukXVPmgw-20" style="edgeStyle=orthogonalEdgeStyle;rounded=0;orthogonalLoop=1;jettySize=auto;html=1;" edge="1" parent="1" source="zCudlDXxl8ypukXVPmgw-16">
          <mxGeometry relative="1" as="geometry">
            <mxPoint x="345" y="650" as="targetPoint" />
          </mxGeometry>
        </mxCell>
        <mxCell id="zCudlDXxl8ypukXVPmgw-16" value="Yes" style="rhombus;whiteSpace=wrap;html=1;fillColor=#d5e8d4;strokeColor=#82b366;" vertex="1" parent="1">
          <mxGeometry x="310" y="525" width="70" height="50" as="geometry" />
        </mxCell>
        <mxCell id="zCudlDXxl8ypukXVPmgw-32" style="edgeStyle=orthogonalEdgeStyle;rounded=0;orthogonalLoop=1;jettySize=auto;html=1;entryX=0.5;entryY=0;entryDx=0;entryDy=0;" edge="1" parent="1" source="zCudlDXxl8ypukXVPmgw-17" target="zCudlDXxl8ypukXVPmgw-31">
          <mxGeometry relative="1" as="geometry" />
        </mxCell>
        <mxCell id="zCudlDXxl8ypukXVPmgw-33" value="The Computer was no isolated, Please Investigate." style="edgeLabel;html=1;align=center;verticalAlign=middle;resizable=0;points=[];" vertex="1" connectable="0" parent="zCudlDXxl8ypukXVPmgw-32">
          <mxGeometry x="0.1597" relative="1" as="geometry">
            <mxPoint as="offset" />
          </mxGeometry>
        </mxCell>
        <mxCell id="zCudlDXxl8ypukXVPmgw-17" value="No" style="rhombus;whiteSpace=wrap;html=1;fillColor=#f8cecc;strokeColor=#b85450;" vertex="1" parent="1">
          <mxGeometry x="590" y="525" width="60" height="50" as="geometry" />
        </mxCell>
        <mxCell id="zCudlDXxl8ypukXVPmgw-27" style="edgeStyle=orthogonalEdgeStyle;rounded=0;orthogonalLoop=1;jettySize=auto;html=1;" edge="1" parent="1" source="zCudlDXxl8ypukXVPmgw-21" target="zCudlDXxl8ypukXVPmgw-26">
          <mxGeometry relative="1" as="geometry" />
        </mxCell>
        <mxCell id="zCudlDXxl8ypukXVPmgw-28" value="Isolation status&amp;nbsp;" style="edgeLabel;html=1;align=center;verticalAlign=middle;resizable=0;points=[];" vertex="1" connectable="0" parent="zCudlDXxl8ypukXVPmgw-27">
          <mxGeometry x="-0.0788" y="1" relative="1" as="geometry">
            <mxPoint as="offset" />
          </mxGeometry>
        </mxCell>
        <mxCell id="zCudlDXxl8ypukXVPmgw-21" value="LimaCharlie" style="rounded=1;whiteSpace=wrap;html=1;fillColor=#dae8fc;strokeColor=#6c8ebf;" vertex="1" parent="1">
          <mxGeometry x="285" y="650" width="120" height="60" as="geometry" />
        </mxCell>
        <mxCell id="zCudlDXxl8ypukXVPmgw-29" style="edgeStyle=orthogonalEdgeStyle;rounded=0;orthogonalLoop=1;jettySize=auto;html=1;entryX=0;entryY=0.5;entryDx=0;entryDy=0;" edge="1" parent="1" source="zCudlDXxl8ypukXVPmgw-22" target="zCudlDXxl8ypukXVPmgw-4">
          <mxGeometry relative="1" as="geometry" />
        </mxCell>
        <mxCell id="zCudlDXxl8ypukXVPmgw-30" value="Detect Hack tool" style="edgeLabel;html=1;align=center;verticalAlign=middle;resizable=0;points=[];" vertex="1" connectable="0" parent="zCudlDXxl8ypukXVPmgw-29">
          <mxGeometry x="0.0872" y="4" relative="1" as="geometry">
            <mxPoint as="offset" />
          </mxGeometry>
        </mxCell>
        <mxCell id="zCudlDXxl8ypukXVPmgw-22" value="Infected" style="verticalAlign=top;verticalLabelPosition=bottom;labelPosition=center;align=center;html=1;outlineConnect=0;fillColor=#f8cecc;strokeColor=#b85450;gradientDirection=north;strokeWidth=2;shape=mxgraph.networks.pc;" vertex="1" parent="1">
          <mxGeometry x="-100" y="195" width="100" height="70" as="geometry" />
        </mxCell>
        <mxCell id="zCudlDXxl8ypukXVPmgw-23" value="" style="verticalAlign=top;verticalLabelPosition=bottom;labelPosition=center;align=center;html=1;outlineConnect=0;fillColor=#dae8fc;strokeColor=#6c8ebf;gradientDirection=north;strokeWidth=2;shape=mxgraph.networks.pc;" vertex="1" parent="1">
          <mxGeometry x="60" y="650" width="100" height="70" as="geometry" />
        </mxCell>
        <mxCell id="zCudlDXxl8ypukXVPmgw-24" style="edgeStyle=orthogonalEdgeStyle;rounded=0;orthogonalLoop=1;jettySize=auto;html=1;entryX=1.1;entryY=0.429;entryDx=0;entryDy=0;entryPerimeter=0;" edge="1" parent="1" source="zCudlDXxl8ypukXVPmgw-21" target="zCudlDXxl8ypukXVPmgw-23">
          <mxGeometry relative="1" as="geometry" />
        </mxCell>
        <mxCell id="zCudlDXxl8ypukXVPmgw-25" value="Isolate machine" style="edgeLabel;html=1;align=center;verticalAlign=middle;resizable=0;points=[];" vertex="1" connectable="0" parent="zCudlDXxl8ypukXVPmgw-24">
          <mxGeometry x="0.0841" y="-3" relative="1" as="geometry">
            <mxPoint as="offset" />
          </mxGeometry>
        </mxCell>
        <mxCell id="zCudlDXxl8ypukXVPmgw-26" value="Slack" style="rounded=1;whiteSpace=wrap;html=1;fillColor=#fff2cc;strokeColor=#d6b656;" vertex="1" parent="1">
          <mxGeometry x="285" y="820" width="120" height="60" as="geometry" />
        </mxCell>
        <mxCell id="zCudlDXxl8ypukXVPmgw-31" value="Slack" style="rounded=1;whiteSpace=wrap;html=1;fillColor=#fff2cc;strokeColor=#d6b656;" vertex="1" parent="1">
          <mxGeometry x="685" y="720" width="120" height="60" as="geometry" />
        </mxCell>
      </root>
    </mxGraphModel>
  </diagram>
</mxfile>
